<svg width="19" height="20" fill="none" xmlns="http://www.w3.org/2000/svg"><path d="M3.955 8.184l-1.86 4.964a8.951 8.951 0 002.873 4.642l2.335-.876a10.233 10.233 0 01-3.348-8.73zm-2.491 6.645L.037 18.633a.569.569 0 00.732.732l3.01-1.129a10.197 10.197 0 01-2.315-3.407z" fill="#F92424"/><path d="M7.945 7.72L5.824 5.6a9.079 9.079 0 002.701 10.857l2.265-.849a10.26 10.26 0 01-2.845-7.886zm1.11 1.11a9.075 9.075 0 002.915 6.334l1.66-.622a.569.569 0 00.202-.934L9.055 8.83zm4.152 1.786a.568.568 0 00.803 0c2.139-2.138 4.22-1.477 4.242-1.47a.568.568 0 00.36-1.079c-.113-.037-2.776-.884-5.405 1.745a.568.568 0 000 .804zM9.59 6.195C12.22 3.565 11.371.903 11.333.79a.568.568 0 00-1.078.36c.007.02.668 2.103-1.47 4.241a.569.569 0 00.803.804zM10.795 7.4a.568.568 0 00.8.808c.294-.146 1.206.402 1.712-.104.501-.5-.031-1.394.102-1.707.313-.133 1.206.4 1.707-.101.5-.501-.032-1.394.101-1.707.314-.134 1.206.4 1.707-.102.501-.501-.031-1.394.102-1.707.312-.133 1.206.399 1.707-.102.506-.506-.041-1.419.104-1.711a.568.568 0 00-.808-.8c-.448.447-.36 1.08-.275 1.532-.453-.084-1.085-.172-1.533.276-.448.448-.36 1.08-.276 1.533-.452-.085-1.085-.172-1.533.276-.448.448-.36 1.08-.276 1.532-.452-.084-1.084-.172-1.532.276-.448.448-.36 1.08-.276 1.533-.452-.084-1.085-.172-1.533.276zm3.215-4.822a.568.568 0 10-.803-.804.568.568 0 00.803.804zm3.618 4.186a.568.568 0 100-1.137.568.568 0 000 1.137zm-1.206 4.656a.568.568 0 10.804.804.568.568 0 00-.804-.804zM8.384 3.382a.568.568 0 10-.804-.804.568.568 0 00.804.804z" fill="#F92424"/></svg>