<svg width="32" height="32" fill="none" xmlns="http://www.w3.org/2000/svg"><path d="M28.25 22.563v-1.875h-1.875v-.938c0-3.3-2.449-6.039-5.625-6.495v-1.943h-1.875v1.943c-3.176.456-5.625 3.195-5.625 6.495v.938h-1.875v1.875H28.25zM15.125 19.75a4.693 4.693 0 014.688-4.688A4.693 4.693 0 0124.5 19.75v.938h-9.375v-.938z" fill="#787878"/><path d="M20.75 0H0v26.313h7.625V32H32V5.625H20.75V0zM7.625 24.438h-5.75V1.875h13.966L7.625 5.983v18.454zm11.25-21.984v3.171h-6.341l6.341-3.17zM30.125 7.5v22.625H9.5V7.5h20.625z" fill="#787878"/><path d="M13.25 26.313h13.125v1.875H13.25v-1.875z" fill="#787878"/></svg>